<?xml version="1.0" encoding="utf-8"?>
<!-- Generator: Adobe Illustrator 26.0.0, SVG Export Plug-In . SVG Version: 6.00 Build 0)  -->
<svg version="1.1" id="Layer_1" xmlns="http://www.w3.org/2000/svg" xmlns:xlink="http://www.w3.org/1999/xlink" x="0px" y="0px"
	 viewBox="0 0 100 100" style="enable-background:new 0 0 100 100;" xml:space="preserve">
<style type="text/css">
	.st0{fill:#FFFFFF;}
	.st1{fill:#9E252F;}
	.st2{fill:#F79135;}
	.st3{fill:#DA4298;}
	.st4{fill:#F15822;}
</style>
<g>
	<path class="st0" d="M24.21,24.86c1.75-2.1,3.65-4.35,6.36-5.2c3.03-0.8,5.6,1.58,7.51,3.6c4.98,5.7,8.61,12.44,11.99,19.19
		c1.83-4.1,4.1-8.01,6.46-11.81c2.25-3.45,4.58-6.96,7.83-9.58c1.5-1.15,3.58-2.25,5.45-1.28c2.65,1.4,4.65,3.73,6.53,6.01
		c3.98,5.13,7.11,10.86,9.93,16.69c3.53,7.51,6.58,15.34,7.86,23.57c0.38,3.8,0.73,8.08-1.58,11.41c-1.78,2.6-5.15,3.5-8.16,2.98
		c-2.6-0.93-4.88-2.63-6.58-4.78c-4.05-5-6.46-11.06-8.68-17.04c-0.33-1.05-0.73-2.08-1.08-3.1c-0.23,1.05-0.53,2.1-0.88,3.13
		c-2.28,6.06-4.7,12.24-8.88,17.26c-1.68,2.05-3.88,3.63-6.38,4.53c-3.6,0.75-7.08-1.13-9.41-3.78c-4.55-4.95-7.08-11.36-9.41-17.59
		c-0.45-1.28-0.9-2.55-1.23-3.88c-0.38,1.33-0.83,2.65-1.3,3.93c-2.1,5.73-4.5,11.51-8.31,16.34c-2.08,2.48-4.78,4.9-8.16,5.08
		c-3.13,0.28-6.16-1.75-7.36-4.6c-1.7-3.95-1.2-8.41-0.45-12.54c1.63-7.88,4.63-15.41,8.18-22.59
		C17.21,35.22,20.31,29.76,24.21,24.86 M25.99,26.61c-3.85,4.9-6.93,10.41-9.68,15.99c-3.43,7.23-6.53,14.76-7.86,22.69
		C7.98,67.49,7.98,69.77,8.2,72c0.28,2.1,1.1,4.35,3.03,5.43c1.85,1.08,4.23,0.65,5.9-0.55c3-2.1,5-5.3,6.73-8.48
		c3.7-7.08,6.13-14.76,7.96-22.49c1.95,7.93,4.4,15.84,8.31,23.07c1.55,2.68,3.18,5.45,5.7,7.31c1.28,1.15,2.95,1.95,4.7,1.75
		c1.95-0.2,3.58-1.45,4.95-2.78c2.33-2.4,4.03-5.35,5.53-8.31c3.2-6.56,5.4-13.56,7.13-20.62c2.15,8.56,4.83,17.14,9.43,24.75
		c1.73,2.65,3.75,5.4,6.78,6.66c2.13,0.88,4.83,0.1,6.06-1.88c1.48-2.38,1.6-5.33,1.38-8.03c-0.3-4.38-1.58-8.63-2.98-12.79
		c-2.8-8.01-6.48-15.71-10.96-22.89c-2.08-3.2-4.23-6.43-7.13-8.98c-1.03-0.9-2.55-1.78-3.85-0.88c-2.5,1.53-4.23,3.95-5.98,6.26
		C56.64,34.59,53.14,41.2,50.26,48c-0.08,0.1-0.28,0.3-0.35,0.4c-0.25-0.78-0.5-1.53-0.83-2.28c-2.95-6.38-6.23-12.66-10.41-18.32
		c-1.43-1.88-2.9-3.78-4.83-5.15c-0.83-0.58-1.93-1.1-2.9-0.6C28.87,23.01,27.42,24.88,25.99,26.61"/>
	<path class="st1" d="M25.99,26.61c1.43-1.73,2.9-3.58,4.98-4.53c0.98-0.5,2.08,0,2.9,0.6c1.93,1.38,3.4,3.3,4.83,5.15
		c4.15,5.68,7.46,11.94,10.41,18.32c0.35,0.73,0.6,1.5,0.83,2.28c-3.85-6.53-7.36-13.31-12.16-19.22c-1.4-1.65-2.88-3.4-4.9-4.28
		c-1.15-0.5-2.33,0.15-3.28,0.78c-3.45,2.9-6.01,6.68-8.41,10.43c-5.65,9.01-9.91,18.89-12.71,29.15c1.33-7.93,4.4-15.46,7.86-22.69
		C19.06,37.02,22.14,31.51,25.99,26.61"/>
	<path class="st1" d="M66.87,22.26c1.3-0.9,2.83-0.03,3.85,0.88c2.9,2.53,5.05,5.75,7.13,8.98c4.48,7.21,8.18,14.89,10.96,22.89
		c1.4,4.15,2.68,8.38,2.98,12.79c-0.48-3.05-1.28-6.06-2.3-8.96c-2.65-7.98-6.33-15.64-10.78-22.77c-1.95-3.05-4.03-6.08-6.53-8.68
		c-1-1-2.08-2.05-3.45-2.5c-1.08-0.33-2.05,0.43-2.93,0.95c-2.33,1.83-4.13,4.18-5.85,6.56c-3.05,4.33-5.78,8.88-8.23,13.56
		c-0.4,0.75-0.9,1.45-1.45,2.08c2.88-6.83,6.38-13.41,10.63-19.47C62.65,26.23,64.4,23.78,66.87,22.26"/>
	<path class="st2" d="M29.59,25.71c0.95-0.63,2.13-1.28,3.28-0.78c2.03,0.88,3.5,2.63,4.9,4.28c4.8,5.9,8.31,12.69,12.14,19.22
		c-2.4,6.83-5.25,13.69-5.43,21.02c-0.13,2.35,0.5,4.65,1.38,6.83c-2.53-1.85-4.18-4.63-5.7-7.31c-3.88-7.23-6.36-15.11-8.31-23.07
		C30.44,39.3,29.14,32.54,29.59,25.71"/>
	<path class="st3" d="M65.82,25.81c0.88-0.53,1.85-1.28,2.93-0.95c1.38,0.45,2.45,1.5,3.45,2.5c2.5,2.63,4.58,5.63,6.53,8.68
		c4.45,7.13,8.13,14.79,10.78,22.77c1.05,2.9,1.83,5.9,2.3,8.96c0.23,2.7,0.1,5.65-1.38,8.03c-1.23,2-3.9,2.75-6.06,1.88
		c-3.03-1.23-5.05-4-6.78-6.66c-4.6-7.58-7.28-16.16-9.43-24.75C66.72,39.6,65.37,32.74,65.82,25.81"/>
	<path class="st3" d="M21.19,36.14c2.4-3.75,4.95-7.53,8.41-10.43c-0.45,6.81,0.85,13.59,2.28,20.19
		c-1.83,7.76-4.28,15.41-7.96,22.49c-1.73,3.18-3.73,6.38-6.73,8.48c-1.68,1.2-4.05,1.63-5.9,0.55C9.35,76.35,8.53,74.07,8.25,72
		C8,69.77,8.03,67.49,8.5,65.29C11.25,55.03,15.53,45.15,21.19,36.14"/>
	<path class="st4" d="M59.97,32.36c1.73-2.38,3.53-4.73,5.85-6.56c-0.45,6.91,0.9,13.79,2.38,20.49
		c-1.73,7.08-3.95,14.06-7.13,20.62c-1.5,2.98-3.2,5.9-5.53,8.31c-1.35,1.33-3,2.58-4.95,2.78c-1.75,0.2-3.43-0.6-4.7-1.75
		c-0.88-2.18-1.5-4.48-1.38-6.83c0.18-7.33,3.03-14.21,5.43-21.02c0.08-0.1,0.28-0.3,0.35-0.4c0.55-0.65,1.05-1.33,1.45-2.08
		C54.21,41.25,56.92,36.69,59.97,32.36"/>
</g>
</svg>
